{"accessors":[{"bufferView":0,"byteOffset":0,"componentType":5126,"count":219,"max":[11,1.5,8],"min":[-11,-1.5,-8.00000095367432],"normalized":false,"type":"VEC3"},{"bufferView":1,"byteOffset":0,"componentType":5126,"count":219,"max":[0.0000915653072297573,0,1,1],"min":[-1,-1,-1,-1],"normalized":false,"type":"VEC4"},{"bufferView":2,"byteOffset":0,"componentType":5126,"count":219,"max":[1,1,1],"min":[-1,-1,-1],"normalized":false,"type":"VEC3"},{"bufferView":3,"byteOffset":0,"componentType":5126,"count":219,"max":[1,1],"min":[0,0],"normalized":false,"type":"VEC2"},{"bufferView":4,"byteOffset":0,"componentType":5123,"count":219,"max":[218],"min":[0],"normalized":false,"type":"SCALAR"},{"bufferView":5,"byteOffset":0,"componentType":5126,"count":60,"max":[7,1.5,5],"min":[1,-1.5,-5],"normalized":false,"type":"VEC3"},{"bufferView":6,"byteOffset":0,"componentType":5126,"count":60,"max":[0,0,0.0000763009302318096,1],"min":[-1,-1,-1,-1],"normalized":false,"type":"VEC4"},{"bufferView":7,"byteOffset":0,"componentType":5126,"count":60,"max":[1,1,1],"min":[-1,-1,-1],"normalized":false,"type":"VEC3"},{"bufferView":8,"byteOffset":0,"componentType":5126,"count":60,"max":[1,1],"min":[0,0],"normalized":false,"type":"VEC2"},{"bufferView":9,"byteOffset":0,"componentType":5123,"count":60,"max":[59],"min":[0],"normalized":false,"type":"SCALAR"},{"bufferView":10,"byteOffset":0,"componentType":5126,"count":120,"max":[13,1.5,10],"min":[-13,-1.5,-10],"normalized":false,"type":"VEC3"},{"bufferView":11,"byteOffset":0,"componentType":5126,"count":120,"max":[0,0,0.0000763009302318096,1],"min":[-1,-1,-1,-1],"normalized":false,"type":"VEC4"},{"bufferView":12,"byteOffset":0,"componentType":5126,"count":120,"max":[1,1,1],"min":[-1,-1,-1],"normalized":false,"type":"VEC3"},{"bufferView":13,"byteOffset":0,"componentType":5126,"count":120,"max":[1,1],"min":[0,0],"normalized":false,"type":"VEC2"},{"bufferView":14,"byteOffset":0,"componentType":5123,"count":120,"max":[119],"min":[0],"normalized":false,"type":"SCALAR"},{"bufferView":15,"byteOffset":0,"componentType":5126,"count":60,"max":[5,1.5,-2],"min":[-5,-1.5,-16],"normalized":false,"type":"VEC3"},{"bufferView":16,"byteOffset":0,"componentType":5126,"count":60,"max":[0,0,0.0000763009302318096,1],"min":[-1,-1,-1,-1],"normalized":false,"type":"VEC4"},{"bufferView":17,"byteOffset":0,"componentType":5126,"count":60,"max":[1,1,1],"min":[-1,-1,-1],"normalized":false,"type":"VEC3"},{"bufferView":18,"byteOffset":0,"componentType":5126,"count":60,"max":[1,1],"min":[0,0],"normalized":false,"type":"VEC2"},{"bufferView":19,"byteOffset":0,"componentType":5123,"count":60,"max":[59],"min":[0],"normalized":false,"type":"SCALAR"},{"bufferView":20,"byteOffset":0,"componentType":5126,"count":999,"max":[29,4.5,6],"min":[-36,-1.5,-32],"normalized":false,"type":"VEC3"},{"bufferView":21,"byteOffset":0,"componentType":5126,"count":999,"max":[1,0.0000457791611552238,1,1],"min":[-1,-1,-1,1],"normalized":false,"type":"VEC4"},{"bufferView":22,"byteOffset":0,"componentType":5126,"count":999,"max":[1,1,1],"min":[-1,-1,-1],"normalized":false,"type":"VEC3"},{"bufferView":23,"byteOffset":0,"componentType":5126,"count":999,"max":[1,1],"min":[0,0],"normalized":false,"type":"VEC2"},{"bufferView":24,"byteOffset":0,"componentType":5123,"count":999,"max":[998],"min":[0],"normalized":false,"type":"SCALAR"}],"asset":{"generator":"Godot Engine v4.3.stable.official@77dcf97d82cbfe4e4615475fa52ca03da645dbd8","version":"2.0"},"bufferViews":[{"buffer":0,"byteLength":2628,"byteOffset":0,"byteStride":12,"target":34962},{"buffer":0,"byteLength":3504,"byteOffset":2628,"byteStride":16,"target":34962},{"buffer":0,"byteLength":2628,"byteOffset":6132,"byteStride":12,"target":34962},{"buffer":0,"byteLength":1752,"byteOffset":8760,"byteStride":8,"target":34962},{"buffer":0,"byteLength":438,"byteOffset":10512,"target":34963},{"buffer":0,"byteLength":720,"byteOffset":10952,"byteStride":12,"target":34962},{"buffer":0,"byteLength":960,"byteOffset":11672,"byteStride":16,"target":34962},{"buffer":0,"byteLength":720,"byteOffset":12632,"byteStride":12,"target":34962},{"buffer":0,"byteLength":480,"byteOffset":13352,"byteStride":8,"target":34962},{"buffer":0,"byteLength":120,"byteOffset":13832,"target":34963},{"buffer":0,"byteLength":1440,"byteOffset":13952,"byteStride":12,"target":34962},{"buffer":0,"byteLength":1920,"byteOffset":15392,"byteStride":16,"target":34962},{"buffer":0,"byteLength":1440,"byteOffset":17312,"byteStride":12,"target":34962},{"buffer":0,"byteLength":960,"byteOffset":18752,"byteStride":8,"target":34962},{"buffer":0,"byteLength":240,"byteOffset":19712,"target":34963},{"buffer":0,"byteLength":720,"byteOffset":19952,"byteStride":12,"target":34962},{"buffer":0,"byteLength":960,"byteOffset":20672,"byteStride":16,"target":34962},{"buffer":0,"byteLength":720,"byteOffset":21632,"byteStride":12,"target":34962},{"buffer":0,"byteLength":480,"byteOffset":22352,"byteStride":8,"target":34962},{"buffer":0,"byteLength":120,"byteOffset":22832,"target":34963},{"buffer":0,"byteLength":11988,"byteOffset":22952,"byteStride":12,"target":34962},{"buffer":0,"byteLength":15984,"byteOffset":34940,"byteStride":16,"target":34962},{"buffer":0,"byteLength":11988,"byteOffset":50924,"byteStride":12,"target":34962},{"buffer":0,"byteLength":7992,"byteOffset":62912,"byteStride":8,"target":34962},{"buffer":0,"byteLength":1998,"byteOffset":70904,"target":34963}],"buffers":[{"byteLength":72904,"uri":"main_level0.bin"}],"extensions":{"KHR_lights_punctual":{"lights":[{"color":[1,1,1],"intensity":1,"range":340282346638528859811704183484516925440,"type":"directional"}]}},"extensionsUsed":["GODOT_single_root","KHR_lights_punctual"],"images":[{"uri":"textures%2F_albedo000.png"}],"materials":[{"extensions":{},"pbrMetallicRoughness":{"baseColorFactor":[0.99999988079071,0.99999988079071,0.99999988079071,1],"baseColorTexture":{"index":0},"metallicFactor":0,"roughnessFactor":1}}],"meshes":[{"extras":{"targetNames":[]},"primitives":[{"attributes":{"NORMAL":2,"POSITION":0,"TANGENT":1,"TEXCOORD_0":3},"indices":4,"material":0,"mode":4}]},{"extras":{"targetNames":[]},"primitives":[{"attributes":{"NORMAL":7,"POSITION":5,"TANGENT":6,"TEXCOORD_0":8},"indices":9,"material":0,"mode":4}]},{"extras":{"targetNames":[]},"primitives":[{"attributes":{"NORMAL":12,"POSITION":10,"TANGENT":11,"TEXCOORD_0":13},"indices":14,"material":0,"mode":4}]},{"extras":{"targetNames":[]},"primitives":[{"attributes":{"NORMAL":17,"POSITION":15,"TANGENT":16,"TEXCOORD_0":18},"indices":19,"material":0,"mode":4}]},{"extras":{"targetNames":[]},"primitives":[{"attributes":{"NORMAL":22,"POSITION":20,"TANGENT":21,"TEXCOORD_0":23},"indices":24,"material":0,"mode":4}]}],"nodes":[{"children":[1,2,3,6,8,10,12,23],"name":"MainLevel"},{"name":"WorldEnvironment"},{"extensions":{"KHR_lights_punctual":{"light":0}},"name":"DirectionalLight3D","rotation":[-0.12941066920757,0.836515367031097,0.482963532209396,0.22414530813694]},{"children":[4,5],"mesh":0,"name":"Overhang2","translation":[-20,1.5,11]},{"name":"Overhang22","translation":[3,0,5]},{"name":"Corridor6","rotation":[0,0.70710676908493,0,0.70710676908493],"translation":[-6,-0.25,-8]},{"children":[7],"mesh":1,"name":"Overhang24","translation":[-25,1.5,-5]},{"name":"Overhang3","translation":[-6,0,0]},{"children":[9],"mesh":2,"name":"Overhang33","translation":[2,1.5,-9]},{"name":"Overhang4"},{"children":[11],"mesh":3,"name":"Overhang43","translation":[28,1.5,0]},{"name":"Overhang5","translation":[0,0,14]},{"children":[13],"mesh":4,"name":"Room2","translation":[4,1.5,13]},{"children":[14,15,16,17,18,19,20,21,22],"name":"CSGCombiner3D"},{"name":"Room22","translation":[-24,1.5,-2]},{"name":"Corridor","translation":[-9,-0.25,0]},{"name":"Corridor2","rotation":[0,0.70710676908493,0,0.70710676908493],"translation":[-30,-0.25,-11]},{"name":"Corridor3","rotation":[0,1,0,-0.0000000437114],"translation":[-19,2.75,-18]},{"name":"Corridor4","rotation":[0,0.70710676908493,0,0.70710676908493],"translation":[-11,2.75,-10]},{"name":"Corridor5","rotation":[0,1,0,-0.0000000437114],"translation":[15,2.75,-23]},{"name":"Room3","translation":[-29,1.5,-18]},{"name":"Room4","translation":[-2,1.5,-22]},{"name":"Room5","translation":[24,1.5,-13]},{"name":"Sprite3D","scale":[2.40000009536743,2.40000009536743,2.40000009536743],"translation":[0,0.100000001490116,0]}],"samplers":[{"magFilter":9729,"minFilter":9987,"wrapS":10497,"wrapT":10497}],"scene":0,"scenes":[{"nodes":[0]}],"textures":[{"sampler":0,"source":0}]}